<mxfile host="app.diagrams.net" modified="2023-10-11T14:47:20.511Z" agent="Mozilla/5.0 (Windows NT 10.0; Win64; x64) AppleWebKit/537.36 (KHTML, like Gecko) Chrome/117.0.0.0 Safari/537.36" etag="fk-qL8q5nUfDxqzIFK3p" version="22.0.4" type="device">
  <diagram name="PÃ¡gina-1" id="YMS72fRI1g6qzpn0Bzsl">
    <mxGraphModel dx="2442" dy="1991" grid="1" gridSize="10" guides="1" tooltips="1" connect="1" arrows="1" fold="1" page="1" pageScale="1" pageWidth="827" pageHeight="1169" math="0" shadow="0">
      <root>
        <mxCell id="0" />
        <mxCell id="1" parent="0" />
        <mxCell id="8PaIV5h2lotwXUUkNXA3-9" style="edgeStyle=orthogonalEdgeStyle;rounded=0;orthogonalLoop=1;jettySize=auto;html=1;entryX=0.5;entryY=0;entryDx=0;entryDy=0;" edge="1" parent="1" source="lfwVHoiBFtauXAvSEoH1-1" target="lfwVHoiBFtauXAvSEoH1-3">
          <mxGeometry relative="1" as="geometry">
            <Array as="points">
              <mxPoint x="300" y="165" />
            </Array>
          </mxGeometry>
        </mxCell>
        <mxCell id="lfwVHoiBFtauXAvSEoH1-1" value="Pais" style="shape=umlActor;verticalLabelPosition=bottom;verticalAlign=top;html=1;outlineConnect=0;" parent="1" vertex="1">
          <mxGeometry x="333.13" y="120" width="51" height="90" as="geometry" />
        </mxCell>
        <mxCell id="8PaIV5h2lotwXUUkNXA3-16" style="edgeStyle=orthogonalEdgeStyle;rounded=0;orthogonalLoop=1;jettySize=auto;html=1;entryX=0.5;entryY=0;entryDx=0;entryDy=0;" edge="1" parent="1" source="lfwVHoiBFtauXAvSEoH1-3" target="8PaIV5h2lotwXUUkNXA3-15">
          <mxGeometry relative="1" as="geometry" />
        </mxCell>
        <mxCell id="8PaIV5h2lotwXUUkNXA3-18" style="edgeStyle=orthogonalEdgeStyle;rounded=0;orthogonalLoop=1;jettySize=auto;html=1;entryX=0.5;entryY=0;entryDx=0;entryDy=0;" edge="1" parent="1" source="lfwVHoiBFtauXAvSEoH1-3" target="8PaIV5h2lotwXUUkNXA3-17">
          <mxGeometry relative="1" as="geometry" />
        </mxCell>
        <mxCell id="8PaIV5h2lotwXUUkNXA3-20" style="edgeStyle=orthogonalEdgeStyle;rounded=0;orthogonalLoop=1;jettySize=auto;html=1;entryX=0.5;entryY=0;entryDx=0;entryDy=0;" edge="1" parent="1" source="lfwVHoiBFtauXAvSEoH1-3" target="8PaIV5h2lotwXUUkNXA3-19">
          <mxGeometry relative="1" as="geometry" />
        </mxCell>
        <mxCell id="8PaIV5h2lotwXUUkNXA3-23" style="edgeStyle=orthogonalEdgeStyle;rounded=0;orthogonalLoop=1;jettySize=auto;html=1;" edge="1" parent="1" source="lfwVHoiBFtauXAvSEoH1-3" target="8PaIV5h2lotwXUUkNXA3-22">
          <mxGeometry relative="1" as="geometry" />
        </mxCell>
        <mxCell id="8PaIV5h2lotwXUUkNXA3-25" style="edgeStyle=orthogonalEdgeStyle;rounded=0;orthogonalLoop=1;jettySize=auto;html=1;" edge="1" parent="1" source="lfwVHoiBFtauXAvSEoH1-3" target="8PaIV5h2lotwXUUkNXA3-24">
          <mxGeometry relative="1" as="geometry" />
        </mxCell>
        <mxCell id="8PaIV5h2lotwXUUkNXA3-83" style="edgeStyle=orthogonalEdgeStyle;rounded=0;orthogonalLoop=1;jettySize=auto;html=1;entryX=0.5;entryY=0;entryDx=0;entryDy=0;" edge="1" parent="1" source="lfwVHoiBFtauXAvSEoH1-3" target="8PaIV5h2lotwXUUkNXA3-26">
          <mxGeometry relative="1" as="geometry" />
        </mxCell>
        <mxCell id="lfwVHoiBFtauXAvSEoH1-3" value="&lt;font style=&quot;font-size: 16px;&quot;&gt;Cadastro / Login&lt;/font&gt;" style="rounded=1;whiteSpace=wrap;html=1;fillColor=#dae8fc;strokeColor=#6c8ebf;" parent="1" vertex="1">
          <mxGeometry x="240" y="260" width="120" height="60" as="geometry" />
        </mxCell>
        <mxCell id="lfwVHoiBFtauXAvSEoH1-14" value="&lt;font style=&quot;font-size: 16px;&quot;&gt;Aprova Cadastro&lt;/font&gt;" style="rounded=1;whiteSpace=wrap;html=1;fillColor=#dae8fc;strokeColor=#6c8ebf;" parent="1" vertex="1">
          <mxGeometry x="360" y="-100" width="120" height="60" as="geometry" />
        </mxCell>
        <mxCell id="8PaIV5h2lotwXUUkNXA3-11" style="edgeStyle=orthogonalEdgeStyle;rounded=0;orthogonalLoop=1;jettySize=auto;html=1;entryX=0.5;entryY=0;entryDx=0;entryDy=0;" edge="1" parent="1" source="8PaIV5h2lotwXUUkNXA3-1" target="8PaIV5h2lotwXUUkNXA3-8">
          <mxGeometry relative="1" as="geometry">
            <Array as="points">
              <mxPoint x="540" y="165" />
            </Array>
          </mxGeometry>
        </mxCell>
        <mxCell id="8PaIV5h2lotwXUUkNXA3-1" value="Professores" style="shape=umlActor;verticalLabelPosition=bottom;verticalAlign=top;html=1;outlineConnect=0;" vertex="1" parent="1">
          <mxGeometry x="455.88" y="120" width="51" height="90" as="geometry" />
        </mxCell>
        <mxCell id="8PaIV5h2lotwXUUkNXA3-84" style="edgeStyle=orthogonalEdgeStyle;rounded=0;orthogonalLoop=1;jettySize=auto;html=1;entryX=0.5;entryY=0;entryDx=0;entryDy=0;" edge="1" parent="1" source="8PaIV5h2lotwXUUkNXA3-8" target="8PaIV5h2lotwXUUkNXA3-26">
          <mxGeometry relative="1" as="geometry" />
        </mxCell>
        <mxCell id="8PaIV5h2lotwXUUkNXA3-91" style="edgeStyle=orthogonalEdgeStyle;rounded=0;orthogonalLoop=1;jettySize=auto;html=1;entryX=0.5;entryY=0;entryDx=0;entryDy=0;" edge="1" parent="1" source="8PaIV5h2lotwXUUkNXA3-8" target="8PaIV5h2lotwXUUkNXA3-48">
          <mxGeometry relative="1" as="geometry" />
        </mxCell>
        <mxCell id="8PaIV5h2lotwXUUkNXA3-94" style="edgeStyle=orthogonalEdgeStyle;rounded=0;orthogonalLoop=1;jettySize=auto;html=1;entryX=0.5;entryY=0;entryDx=0;entryDy=0;" edge="1" parent="1" source="8PaIV5h2lotwXUUkNXA3-8" target="8PaIV5h2lotwXUUkNXA3-45">
          <mxGeometry relative="1" as="geometry">
            <Array as="points">
              <mxPoint x="640" y="290" />
              <mxPoint x="640" y="140" />
              <mxPoint x="870" y="140" />
            </Array>
          </mxGeometry>
        </mxCell>
        <mxCell id="8PaIV5h2lotwXUUkNXA3-95" style="edgeStyle=orthogonalEdgeStyle;rounded=0;orthogonalLoop=1;jettySize=auto;html=1;entryX=0.5;entryY=0;entryDx=0;entryDy=0;" edge="1" parent="1" source="8PaIV5h2lotwXUUkNXA3-8" target="8PaIV5h2lotwXUUkNXA3-50">
          <mxGeometry relative="1" as="geometry">
            <Array as="points">
              <mxPoint x="640" y="290" />
              <mxPoint x="640" y="140" />
              <mxPoint x="1000" y="140" />
            </Array>
          </mxGeometry>
        </mxCell>
        <mxCell id="8PaIV5h2lotwXUUkNXA3-96" style="edgeStyle=orthogonalEdgeStyle;rounded=0;orthogonalLoop=1;jettySize=auto;html=1;entryX=0.5;entryY=0;entryDx=0;entryDy=0;" edge="1" parent="1" source="8PaIV5h2lotwXUUkNXA3-8" target="8PaIV5h2lotwXUUkNXA3-44">
          <mxGeometry relative="1" as="geometry">
            <Array as="points">
              <mxPoint x="640" y="290" />
              <mxPoint x="640" y="140" />
              <mxPoint x="1130" y="140" />
            </Array>
          </mxGeometry>
        </mxCell>
        <mxCell id="8PaIV5h2lotwXUUkNXA3-97" style="edgeStyle=orthogonalEdgeStyle;rounded=0;orthogonalLoop=1;jettySize=auto;html=1;entryX=0.5;entryY=0;entryDx=0;entryDy=0;" edge="1" parent="1" source="8PaIV5h2lotwXUUkNXA3-8" target="8PaIV5h2lotwXUUkNXA3-49">
          <mxGeometry relative="1" as="geometry">
            <Array as="points">
              <mxPoint x="640" y="290" />
              <mxPoint x="640" y="140" />
              <mxPoint x="1300" y="140" />
              <mxPoint x="1300" y="160" />
            </Array>
          </mxGeometry>
        </mxCell>
        <mxCell id="8PaIV5h2lotwXUUkNXA3-98" style="edgeStyle=orthogonalEdgeStyle;rounded=0;orthogonalLoop=1;jettySize=auto;html=1;entryX=0.5;entryY=0;entryDx=0;entryDy=0;" edge="1" parent="1" source="8PaIV5h2lotwXUUkNXA3-8" target="8PaIV5h2lotwXUUkNXA3-51">
          <mxGeometry relative="1" as="geometry">
            <Array as="points">
              <mxPoint x="640" y="290" />
              <mxPoint x="640" y="140" />
              <mxPoint x="1430" y="140" />
              <mxPoint x="1430" y="160" />
            </Array>
          </mxGeometry>
        </mxCell>
        <mxCell id="8PaIV5h2lotwXUUkNXA3-99" style="edgeStyle=orthogonalEdgeStyle;rounded=0;orthogonalLoop=1;jettySize=auto;html=1;entryX=0.5;entryY=0;entryDx=0;entryDy=0;" edge="1" parent="1" source="8PaIV5h2lotwXUUkNXA3-8" target="8PaIV5h2lotwXUUkNXA3-52">
          <mxGeometry relative="1" as="geometry">
            <Array as="points">
              <mxPoint x="640" y="290" />
              <mxPoint x="640" y="240" />
              <mxPoint x="740" y="240" />
            </Array>
          </mxGeometry>
        </mxCell>
        <mxCell id="8PaIV5h2lotwXUUkNXA3-100" style="edgeStyle=orthogonalEdgeStyle;rounded=0;orthogonalLoop=1;jettySize=auto;html=1;entryX=0.5;entryY=0;entryDx=0;entryDy=0;" edge="1" parent="1" source="8PaIV5h2lotwXUUkNXA3-8" target="8PaIV5h2lotwXUUkNXA3-53">
          <mxGeometry relative="1" as="geometry">
            <Array as="points">
              <mxPoint x="640" y="290" />
              <mxPoint x="640" y="240" />
              <mxPoint x="870" y="240" />
            </Array>
          </mxGeometry>
        </mxCell>
        <mxCell id="8PaIV5h2lotwXUUkNXA3-101" style="edgeStyle=orthogonalEdgeStyle;rounded=0;orthogonalLoop=1;jettySize=auto;html=1;entryX=0.5;entryY=0;entryDx=0;entryDy=0;" edge="1" parent="1" source="8PaIV5h2lotwXUUkNXA3-8" target="8PaIV5h2lotwXUUkNXA3-54">
          <mxGeometry relative="1" as="geometry">
            <Array as="points">
              <mxPoint x="640" y="290" />
              <mxPoint x="640" y="240" />
              <mxPoint x="1000" y="240" />
            </Array>
          </mxGeometry>
        </mxCell>
        <mxCell id="8PaIV5h2lotwXUUkNXA3-102" style="edgeStyle=orthogonalEdgeStyle;rounded=0;orthogonalLoop=1;jettySize=auto;html=1;entryX=0.5;entryY=0;entryDx=0;entryDy=0;" edge="1" parent="1" source="8PaIV5h2lotwXUUkNXA3-8" target="8PaIV5h2lotwXUUkNXA3-55">
          <mxGeometry relative="1" as="geometry">
            <Array as="points">
              <mxPoint x="640" y="290" />
              <mxPoint x="640" y="240" />
              <mxPoint x="1130" y="240" />
            </Array>
          </mxGeometry>
        </mxCell>
        <mxCell id="8PaIV5h2lotwXUUkNXA3-103" style="edgeStyle=orthogonalEdgeStyle;rounded=0;orthogonalLoop=1;jettySize=auto;html=1;" edge="1" parent="1" source="8PaIV5h2lotwXUUkNXA3-8" target="8PaIV5h2lotwXUUkNXA3-58">
          <mxGeometry relative="1" as="geometry">
            <Array as="points">
              <mxPoint x="640" y="290" />
              <mxPoint x="640" y="340" />
              <mxPoint x="740" y="340" />
            </Array>
          </mxGeometry>
        </mxCell>
        <mxCell id="8PaIV5h2lotwXUUkNXA3-104" style="edgeStyle=orthogonalEdgeStyle;rounded=0;orthogonalLoop=1;jettySize=auto;html=1;entryX=0.5;entryY=0;entryDx=0;entryDy=0;" edge="1" parent="1" source="8PaIV5h2lotwXUUkNXA3-8" target="8PaIV5h2lotwXUUkNXA3-59">
          <mxGeometry relative="1" as="geometry">
            <Array as="points">
              <mxPoint x="640" y="290" />
              <mxPoint x="640" y="340" />
              <mxPoint x="870" y="340" />
            </Array>
          </mxGeometry>
        </mxCell>
        <mxCell id="8PaIV5h2lotwXUUkNXA3-105" style="edgeStyle=orthogonalEdgeStyle;rounded=0;orthogonalLoop=1;jettySize=auto;html=1;entryX=0.5;entryY=0;entryDx=0;entryDy=0;" edge="1" parent="1" source="8PaIV5h2lotwXUUkNXA3-8" target="8PaIV5h2lotwXUUkNXA3-56">
          <mxGeometry relative="1" as="geometry">
            <Array as="points">
              <mxPoint x="640" y="290" />
              <mxPoint x="640" y="340" />
              <mxPoint x="1000" y="340" />
            </Array>
          </mxGeometry>
        </mxCell>
        <mxCell id="8PaIV5h2lotwXUUkNXA3-106" style="edgeStyle=orthogonalEdgeStyle;rounded=0;orthogonalLoop=1;jettySize=auto;html=1;entryX=0.5;entryY=0;entryDx=0;entryDy=0;" edge="1" parent="1" source="8PaIV5h2lotwXUUkNXA3-8" target="8PaIV5h2lotwXUUkNXA3-57">
          <mxGeometry relative="1" as="geometry">
            <Array as="points">
              <mxPoint x="640" y="290" />
              <mxPoint x="640" y="340" />
              <mxPoint x="1130" y="340" />
            </Array>
          </mxGeometry>
        </mxCell>
        <mxCell id="8PaIV5h2lotwXUUkNXA3-8" value="&lt;font style=&quot;font-size: 16px;&quot;&gt;Cadastro / Login&lt;/font&gt;" style="rounded=1;whiteSpace=wrap;html=1;fillColor=#dae8fc;strokeColor=#6c8ebf;" vertex="1" parent="1">
          <mxGeometry x="480" y="260" width="120" height="60" as="geometry" />
        </mxCell>
        <mxCell id="8PaIV5h2lotwXUUkNXA3-30" style="edgeStyle=orthogonalEdgeStyle;rounded=0;orthogonalLoop=1;jettySize=auto;html=1;entryX=0.5;entryY=0;entryDx=0;entryDy=0;" edge="1" parent="1" source="8PaIV5h2lotwXUUkNXA3-15" target="8PaIV5h2lotwXUUkNXA3-29">
          <mxGeometry relative="1" as="geometry" />
        </mxCell>
        <mxCell id="8PaIV5h2lotwXUUkNXA3-15" value="&lt;font style=&quot;font-size: 16px;&quot;&gt;Capa/Home&lt;/font&gt;" style="rounded=1;whiteSpace=wrap;html=1;fillColor=#dae8fc;strokeColor=#6c8ebf;" vertex="1" parent="1">
          <mxGeometry x="110" y="340" width="120" height="60" as="geometry" />
        </mxCell>
        <mxCell id="8PaIV5h2lotwXUUkNXA3-32" style="edgeStyle=orthogonalEdgeStyle;rounded=0;orthogonalLoop=1;jettySize=auto;html=1;entryX=0.5;entryY=0;entryDx=0;entryDy=0;" edge="1" parent="1" source="8PaIV5h2lotwXUUkNXA3-17" target="8PaIV5h2lotwXUUkNXA3-31">
          <mxGeometry relative="1" as="geometry" />
        </mxCell>
        <mxCell id="8PaIV5h2lotwXUUkNXA3-17" value="&lt;font style=&quot;font-size: 16px;&quot;&gt;Financeiro&lt;br&gt;&lt;/font&gt;" style="rounded=1;whiteSpace=wrap;html=1;fillColor=#dae8fc;strokeColor=#6c8ebf;" vertex="1" parent="1">
          <mxGeometry x="-20" y="340" width="120" height="60" as="geometry" />
        </mxCell>
        <mxCell id="8PaIV5h2lotwXUUkNXA3-35" style="edgeStyle=orthogonalEdgeStyle;rounded=0;orthogonalLoop=1;jettySize=auto;html=1;entryX=0.5;entryY=0;entryDx=0;entryDy=0;" edge="1" parent="1" source="8PaIV5h2lotwXUUkNXA3-19" target="8PaIV5h2lotwXUUkNXA3-33">
          <mxGeometry relative="1" as="geometry" />
        </mxCell>
        <mxCell id="8PaIV5h2lotwXUUkNXA3-19" value="&lt;p class=&quot;MsoNormal&quot;&gt;Canal de comunicaÃ§Ã£o para equipe gestora&lt;b style=&quot;font-style: italic;&quot;&gt;&lt;/b&gt;&lt;/p&gt;" style="rounded=1;whiteSpace=wrap;html=1;fillColor=#dae8fc;strokeColor=#6c8ebf;" vertex="1" parent="1">
          <mxGeometry x="-150" y="340" width="120" height="60" as="geometry" />
        </mxCell>
        <mxCell id="8PaIV5h2lotwXUUkNXA3-36" style="edgeStyle=orthogonalEdgeStyle;rounded=0;orthogonalLoop=1;jettySize=auto;html=1;" edge="1" parent="1" source="8PaIV5h2lotwXUUkNXA3-22" target="8PaIV5h2lotwXUUkNXA3-34">
          <mxGeometry relative="1" as="geometry" />
        </mxCell>
        <mxCell id="8PaIV5h2lotwXUUkNXA3-38" style="edgeStyle=orthogonalEdgeStyle;rounded=0;orthogonalLoop=1;jettySize=auto;html=1;entryX=0.5;entryY=0;entryDx=0;entryDy=0;" edge="1" parent="1" source="8PaIV5h2lotwXUUkNXA3-22" target="8PaIV5h2lotwXUUkNXA3-37">
          <mxGeometry relative="1" as="geometry" />
        </mxCell>
        <mxCell id="8PaIV5h2lotwXUUkNXA3-22" value="&lt;font style=&quot;font-size: 16px;&quot;&gt;SaÃºde&lt;br&gt;&lt;/font&gt;" style="rounded=1;whiteSpace=wrap;html=1;fillColor=#dae8fc;strokeColor=#6c8ebf;" vertex="1" parent="1">
          <mxGeometry x="-340" y="340" width="120" height="60" as="geometry" />
        </mxCell>
        <mxCell id="8PaIV5h2lotwXUUkNXA3-40" style="edgeStyle=orthogonalEdgeStyle;rounded=0;orthogonalLoop=1;jettySize=auto;html=1;" edge="1" parent="1" source="8PaIV5h2lotwXUUkNXA3-24" target="8PaIV5h2lotwXUUkNXA3-39">
          <mxGeometry relative="1" as="geometry" />
        </mxCell>
        <mxCell id="8PaIV5h2lotwXUUkNXA3-24" value="&lt;font style=&quot;font-size: 16px;&quot;&gt;AlimentaÃ§Ã£o&lt;br&gt;&lt;/font&gt;" style="rounded=1;whiteSpace=wrap;html=1;fillColor=#dae8fc;strokeColor=#6c8ebf;" vertex="1" parent="1">
          <mxGeometry x="-550" y="340" width="120" height="60" as="geometry" />
        </mxCell>
        <mxCell id="8PaIV5h2lotwXUUkNXA3-109" style="edgeStyle=orthogonalEdgeStyle;rounded=0;orthogonalLoop=1;jettySize=auto;html=1;entryX=0.5;entryY=0;entryDx=0;entryDy=0;" edge="1" parent="1" source="8PaIV5h2lotwXUUkNXA3-26" target="8PaIV5h2lotwXUUkNXA3-108">
          <mxGeometry relative="1" as="geometry" />
        </mxCell>
        <mxCell id="8PaIV5h2lotwXUUkNXA3-122" style="edgeStyle=orthogonalEdgeStyle;rounded=0;orthogonalLoop=1;jettySize=auto;html=1;entryX=0.5;entryY=0;entryDx=0;entryDy=0;" edge="1" parent="1" source="8PaIV5h2lotwXUUkNXA3-26" target="8PaIV5h2lotwXUUkNXA3-110">
          <mxGeometry relative="1" as="geometry" />
        </mxCell>
        <mxCell id="8PaIV5h2lotwXUUkNXA3-123" style="edgeStyle=orthogonalEdgeStyle;rounded=0;orthogonalLoop=1;jettySize=auto;html=1;entryX=0.5;entryY=0;entryDx=0;entryDy=0;" edge="1" parent="1" source="8PaIV5h2lotwXUUkNXA3-26" target="8PaIV5h2lotwXUUkNXA3-112">
          <mxGeometry relative="1" as="geometry" />
        </mxCell>
        <mxCell id="8PaIV5h2lotwXUUkNXA3-124" style="edgeStyle=orthogonalEdgeStyle;rounded=0;orthogonalLoop=1;jettySize=auto;html=1;entryX=0.5;entryY=0;entryDx=0;entryDy=0;" edge="1" parent="1" source="8PaIV5h2lotwXUUkNXA3-26" target="8PaIV5h2lotwXUUkNXA3-111">
          <mxGeometry relative="1" as="geometry" />
        </mxCell>
        <mxCell id="8PaIV5h2lotwXUUkNXA3-125" style="edgeStyle=orthogonalEdgeStyle;rounded=0;orthogonalLoop=1;jettySize=auto;html=1;" edge="1" parent="1" source="8PaIV5h2lotwXUUkNXA3-26" target="8PaIV5h2lotwXUUkNXA3-113">
          <mxGeometry relative="1" as="geometry" />
        </mxCell>
        <mxCell id="8PaIV5h2lotwXUUkNXA3-26" value="&lt;font style=&quot;font-size: 16px;&quot;&gt;PedagÃ³gico&lt;br&gt;&lt;/font&gt;" style="rounded=1;whiteSpace=wrap;html=1;fillColor=#dae8fc;strokeColor=#6c8ebf;" vertex="1" parent="1">
          <mxGeometry x="360" y="520" width="120" height="60" as="geometry" />
        </mxCell>
        <mxCell id="8PaIV5h2lotwXUUkNXA3-29" value="&lt;font style=&quot;&quot;&gt;&lt;font style=&quot;font-size: 13px;&quot;&gt;Dados pessoais e autorizaÃ§Ã£o de imagem da crianÃ§a&lt;/font&gt;&lt;br&gt;&lt;/font&gt;" style="rounded=1;whiteSpace=wrap;html=1;fillColor=#dae8fc;strokeColor=#6c8ebf;" vertex="1" parent="1">
          <mxGeometry x="110" y="440" width="120" height="60" as="geometry" />
        </mxCell>
        <mxCell id="8PaIV5h2lotwXUUkNXA3-31" value="&lt;font style=&quot;&quot;&gt;&lt;font style=&quot;font-size: 14px;&quot;&gt;Boletos (atrasados, vencer e pagos)&lt;/font&gt;&lt;br&gt;&lt;/font&gt;" style="rounded=1;whiteSpace=wrap;html=1;fillColor=#dae8fc;strokeColor=#6c8ebf;" vertex="1" parent="1">
          <mxGeometry x="-20" y="440" width="120" height="60" as="geometry" />
        </mxCell>
        <mxCell id="8PaIV5h2lotwXUUkNXA3-33" value="&lt;font style=&quot;font-size: 16px;&quot;&gt;Nomes das gestoras&lt;br&gt;&lt;/font&gt;" style="rounded=1;whiteSpace=wrap;html=1;fillColor=#dae8fc;strokeColor=#6c8ebf;" vertex="1" parent="1">
          <mxGeometry x="-150" y="440" width="120" height="60" as="geometry" />
        </mxCell>
        <mxCell id="8PaIV5h2lotwXUUkNXA3-34" value="&lt;font style=&quot;font-size: 16px;&quot;&gt;InformaÃ§Ãµes e Dicas&lt;br&gt;&lt;/font&gt;" style="rounded=1;whiteSpace=wrap;html=1;fillColor=#dae8fc;strokeColor=#6c8ebf;" vertex="1" parent="1">
          <mxGeometry x="-280" y="440" width="120" height="60" as="geometry" />
        </mxCell>
        <mxCell id="8PaIV5h2lotwXUUkNXA3-37" value="&lt;font style=&quot;&quot;&gt;&lt;font style=&quot;font-size: 14px;&quot;&gt;ResponsÃ¡vel preencher prontuÃ¡rio saÃºde&lt;/font&gt;&lt;br&gt;&lt;/font&gt;" style="rounded=1;whiteSpace=wrap;html=1;fillColor=#dae8fc;strokeColor=#6c8ebf;" vertex="1" parent="1">
          <mxGeometry x="-413.5" y="440" width="120" height="60" as="geometry" />
        </mxCell>
        <mxCell id="8PaIV5h2lotwXUUkNXA3-39" value="&lt;font style=&quot;font-size: 16px;&quot;&gt;CardÃ¡pios&lt;br&gt;&lt;/font&gt;" style="rounded=1;whiteSpace=wrap;html=1;fillColor=#dae8fc;strokeColor=#6c8ebf;" vertex="1" parent="1">
          <mxGeometry x="-550" y="440" width="120" height="60" as="geometry" />
        </mxCell>
        <mxCell id="8PaIV5h2lotwXUUkNXA3-44" value="&lt;font style=&quot;font-size: 16px;&quot;&gt;RelatÃ³rios&lt;/font&gt;" style="rounded=1;whiteSpace=wrap;html=1;fillColor=#dae8fc;strokeColor=#6c8ebf;" vertex="1" parent="1">
          <mxGeometry x="1070" y="160" width="120" height="60" as="geometry" />
        </mxCell>
        <mxCell id="8PaIV5h2lotwXUUkNXA3-45" value="&lt;font style=&quot;font-size: 16px;&quot;&gt;Plano de aula&lt;/font&gt;" style="rounded=1;whiteSpace=wrap;html=1;fillColor=#dae8fc;strokeColor=#6c8ebf;" vertex="1" parent="1">
          <mxGeometry x="810" y="160" width="120" height="60" as="geometry" />
        </mxCell>
        <mxCell id="8PaIV5h2lotwXUUkNXA3-48" value="&lt;font style=&quot;font-size: 16px;&quot;&gt;DiÃ¡rio de classe&lt;/font&gt;" style="rounded=1;whiteSpace=wrap;html=1;fillColor=#dae8fc;strokeColor=#6c8ebf;" vertex="1" parent="1">
          <mxGeometry x="680" y="160" width="120" height="60" as="geometry" />
        </mxCell>
        <mxCell id="8PaIV5h2lotwXUUkNXA3-61" style="edgeStyle=orthogonalEdgeStyle;rounded=0;orthogonalLoop=1;jettySize=auto;html=1;" edge="1" parent="1" source="8PaIV5h2lotwXUUkNXA3-49" target="8PaIV5h2lotwXUUkNXA3-60">
          <mxGeometry relative="1" as="geometry" />
        </mxCell>
        <mxCell id="8PaIV5h2lotwXUUkNXA3-49" value="&lt;font style=&quot;font-size: 16px;&quot;&gt;Dados dos alunos&lt;/font&gt;" style="rounded=1;whiteSpace=wrap;html=1;fillColor=#dae8fc;strokeColor=#6c8ebf;" vertex="1" parent="1">
          <mxGeometry x="1241" y="160" width="120" height="60" as="geometry" />
        </mxCell>
        <mxCell id="8PaIV5h2lotwXUUkNXA3-50" value="&lt;font style=&quot;font-size: 16px;&quot;&gt;PortfÃ³lio&lt;/font&gt;" style="rounded=1;whiteSpace=wrap;html=1;fillColor=#dae8fc;strokeColor=#6c8ebf;" vertex="1" parent="1">
          <mxGeometry x="940" y="160" width="120" height="60" as="geometry" />
        </mxCell>
        <mxCell id="8PaIV5h2lotwXUUkNXA3-63" style="edgeStyle=orthogonalEdgeStyle;rounded=0;orthogonalLoop=1;jettySize=auto;html=1;entryX=0.5;entryY=0;entryDx=0;entryDy=0;" edge="1" parent="1" source="8PaIV5h2lotwXUUkNXA3-51" target="8PaIV5h2lotwXUUkNXA3-62">
          <mxGeometry relative="1" as="geometry" />
        </mxCell>
        <mxCell id="8PaIV5h2lotwXUUkNXA3-51" value="&lt;font style=&quot;font-size: 16px;&quot;&gt;ComunicaÃ§Ã£o Interna&lt;/font&gt;" style="rounded=1;whiteSpace=wrap;html=1;fillColor=#dae8fc;strokeColor=#6c8ebf;" vertex="1" parent="1">
          <mxGeometry x="1371" y="160" width="120" height="60" as="geometry" />
        </mxCell>
        <mxCell id="8PaIV5h2lotwXUUkNXA3-52" value="&lt;font style=&quot;font-size: 16px;&quot;&gt;CalendÃ¡rio escolar&lt;/font&gt;" style="rounded=1;whiteSpace=wrap;html=1;fillColor=#dae8fc;strokeColor=#6c8ebf;" vertex="1" parent="1">
          <mxGeometry x="680" y="260" width="120" height="60" as="geometry" />
        </mxCell>
        <mxCell id="8PaIV5h2lotwXUUkNXA3-53" value="&lt;font style=&quot;font-size: 16px;&quot;&gt;Matriz curricular&lt;/font&gt;" style="rounded=1;whiteSpace=wrap;html=1;fillColor=#dae8fc;strokeColor=#6c8ebf;" vertex="1" parent="1">
          <mxGeometry x="810" y="260" width="120" height="60" as="geometry" />
        </mxCell>
        <mxCell id="8PaIV5h2lotwXUUkNXA3-54" value="&lt;font style=&quot;font-size: 16px;&quot;&gt;Eventos&lt;/font&gt;" style="rounded=1;whiteSpace=wrap;html=1;fillColor=#dae8fc;strokeColor=#6c8ebf;" vertex="1" parent="1">
          <mxGeometry x="940" y="260" width="120" height="60" as="geometry" />
        </mxCell>
        <mxCell id="8PaIV5h2lotwXUUkNXA3-55" value="&lt;font style=&quot;font-size: 15px;&quot;&gt;SolicitaÃ§Ã£o de material para gestÃ£o&lt;/font&gt;" style="rounded=1;whiteSpace=wrap;html=1;fillColor=#dae8fc;strokeColor=#6c8ebf;" vertex="1" parent="1">
          <mxGeometry x="1070" y="260" width="120" height="60" as="geometry" />
        </mxCell>
        <mxCell id="8PaIV5h2lotwXUUkNXA3-56" value="&lt;font style=&quot;font-size: 16px;&quot;&gt;Projetos pedagÃ³gicos&lt;/font&gt;" style="rounded=1;whiteSpace=wrap;html=1;fillColor=#dae8fc;strokeColor=#6c8ebf;" vertex="1" parent="1">
          <mxGeometry x="940" y="360" width="120" height="60" as="geometry" />
        </mxCell>
        <mxCell id="8PaIV5h2lotwXUUkNXA3-57" value="&lt;font style=&quot;font-size: 13px;&quot;&gt;Ficha individual dos funcionÃ¡rios com dados pessoais&lt;/font&gt;" style="rounded=1;whiteSpace=wrap;html=1;fillColor=#dae8fc;strokeColor=#6c8ebf;" vertex="1" parent="1">
          <mxGeometry x="1070" y="360" width="120" height="60" as="geometry" />
        </mxCell>
        <mxCell id="8PaIV5h2lotwXUUkNXA3-58" value="&lt;font style=&quot;font-size: 14px;&quot;&gt;Pontos de registro e atestados mÃ©dicos&lt;/font&gt;" style="rounded=1;whiteSpace=wrap;html=1;fillColor=#dae8fc;strokeColor=#6c8ebf;" vertex="1" parent="1">
          <mxGeometry x="680" y="360" width="120" height="60" as="geometry" />
        </mxCell>
        <mxCell id="8PaIV5h2lotwXUUkNXA3-59" value="&lt;font style=&quot;font-size: 14px;&quot;&gt;SolicitaÃ§Ã£o de material&lt;/font&gt;" style="rounded=1;whiteSpace=wrap;html=1;fillColor=#dae8fc;strokeColor=#6c8ebf;" vertex="1" parent="1">
          <mxGeometry x="810" y="360" width="120" height="60" as="geometry" />
        </mxCell>
        <mxCell id="8PaIV5h2lotwXUUkNXA3-60" value="&lt;font style=&quot;font-size: 14px;&quot;&gt;Data de nascimento,nome completo, etc.&lt;/font&gt;" style="rounded=1;whiteSpace=wrap;html=1;fillColor=#dae8fc;strokeColor=#6c8ebf;" vertex="1" parent="1">
          <mxGeometry x="1241" y="260" width="120" height="60" as="geometry" />
        </mxCell>
        <mxCell id="8PaIV5h2lotwXUUkNXA3-62" value="&lt;span style=&quot;font-size: 16px;&quot;&gt;Equipe gestora /&amp;nbsp; professora&lt;/span&gt;" style="rounded=1;whiteSpace=wrap;html=1;fillColor=#dae8fc;strokeColor=#6c8ebf;" vertex="1" parent="1">
          <mxGeometry x="1371" y="260" width="120" height="60" as="geometry" />
        </mxCell>
        <mxCell id="8PaIV5h2lotwXUUkNXA3-119" style="edgeStyle=orthogonalEdgeStyle;rounded=0;orthogonalLoop=1;jettySize=auto;html=1;entryX=0.5;entryY=0;entryDx=0;entryDy=0;" edge="1" parent="1" source="8PaIV5h2lotwXUUkNXA3-108" target="8PaIV5h2lotwXUUkNXA3-118">
          <mxGeometry relative="1" as="geometry" />
        </mxCell>
        <mxCell id="8PaIV5h2lotwXUUkNXA3-108" value="&lt;font style=&quot;font-size: 16px;&quot;&gt;Comunicados&lt;br&gt;&lt;/font&gt;" style="rounded=1;whiteSpace=wrap;html=1;fillColor=#dae8fc;strokeColor=#6c8ebf;" vertex="1" parent="1">
          <mxGeometry x="360" y="610" width="120" height="60" as="geometry" />
        </mxCell>
        <mxCell id="8PaIV5h2lotwXUUkNXA3-121" style="edgeStyle=orthogonalEdgeStyle;rounded=0;orthogonalLoop=1;jettySize=auto;html=1;entryX=0.5;entryY=0;entryDx=0;entryDy=0;" edge="1" parent="1" source="8PaIV5h2lotwXUUkNXA3-110" target="8PaIV5h2lotwXUUkNXA3-120">
          <mxGeometry relative="1" as="geometry" />
        </mxCell>
        <mxCell id="8PaIV5h2lotwXUUkNXA3-110" value="&lt;font style=&quot;font-size: 16px;&quot;&gt;OcorrÃªncias&lt;br&gt;&lt;/font&gt;" style="rounded=1;whiteSpace=wrap;html=1;fillColor=#dae8fc;strokeColor=#6c8ebf;" vertex="1" parent="1">
          <mxGeometry x="490" y="610" width="120" height="60" as="geometry" />
        </mxCell>
        <mxCell id="8PaIV5h2lotwXUUkNXA3-117" style="edgeStyle=orthogonalEdgeStyle;rounded=0;orthogonalLoop=1;jettySize=auto;html=1;entryX=0.5;entryY=0;entryDx=0;entryDy=0;" edge="1" parent="1" source="8PaIV5h2lotwXUUkNXA3-111" target="8PaIV5h2lotwXUUkNXA3-116">
          <mxGeometry relative="1" as="geometry" />
        </mxCell>
        <mxCell id="8PaIV5h2lotwXUUkNXA3-111" value="&lt;font style=&quot;font-size: 16px;&quot;&gt;Rotina&lt;br&gt;&lt;/font&gt;" style="rounded=1;whiteSpace=wrap;html=1;fillColor=#dae8fc;strokeColor=#6c8ebf;" vertex="1" parent="1">
          <mxGeometry x="230" y="610" width="120" height="60" as="geometry" />
        </mxCell>
        <mxCell id="8PaIV5h2lotwXUUkNXA3-112" value="&lt;font style=&quot;font-size: 16px;&quot;&gt;Galeria de fotos e vÃ­deos&lt;br&gt;&lt;/font&gt;" style="rounded=1;whiteSpace=wrap;html=1;fillColor=#dae8fc;strokeColor=#6c8ebf;" vertex="1" parent="1">
          <mxGeometry x="620" y="610" width="120" height="60" as="geometry" />
        </mxCell>
        <mxCell id="8PaIV5h2lotwXUUkNXA3-115" style="edgeStyle=orthogonalEdgeStyle;rounded=0;orthogonalLoop=1;jettySize=auto;html=1;entryX=0.5;entryY=0;entryDx=0;entryDy=0;" edge="1" parent="1" source="8PaIV5h2lotwXUUkNXA3-113" target="8PaIV5h2lotwXUUkNXA3-114">
          <mxGeometry relative="1" as="geometry" />
        </mxCell>
        <mxCell id="8PaIV5h2lotwXUUkNXA3-113" value="&lt;font style=&quot;font-size: 16px;&quot;&gt;InformaÃ§Ãµes pedagÃ³gicas&lt;br&gt;&lt;/font&gt;" style="rounded=1;whiteSpace=wrap;html=1;fillColor=#dae8fc;strokeColor=#6c8ebf;" vertex="1" parent="1">
          <mxGeometry x="100" y="610" width="120" height="60" as="geometry" />
        </mxCell>
        <mxCell id="8PaIV5h2lotwXUUkNXA3-114" value="&lt;font style=&quot;&quot;&gt;&lt;font style=&quot;font-size: 13px;&quot;&gt;Dicas, orientaÃ§Ãµes de jogos e brincadeiras, etc.&lt;/font&gt;&lt;br&gt;&lt;/font&gt;" style="rounded=1;whiteSpace=wrap;html=1;fillColor=#dae8fc;strokeColor=#6c8ebf;" vertex="1" parent="1">
          <mxGeometry x="100" y="700" width="120" height="60" as="geometry" />
        </mxCell>
        <mxCell id="8PaIV5h2lotwXUUkNXA3-116" value="&lt;font style=&quot;&quot;&gt;&lt;font style=&quot;font-size: 13px;&quot;&gt;Preenchido pela professora, direÃ§Ã£o, coordenaÃ§Ã£o&lt;/font&gt;&lt;br&gt;&lt;/font&gt;" style="rounded=1;whiteSpace=wrap;html=1;fillColor=#dae8fc;strokeColor=#6c8ebf;" vertex="1" parent="1">
          <mxGeometry x="230" y="700" width="120" height="60" as="geometry" />
        </mxCell>
        <mxCell id="8PaIV5h2lotwXUUkNXA3-118" value="&lt;font style=&quot;&quot;&gt;&lt;font style=&quot;font-size: 13px;&quot;&gt;Recados gerais preenchidos pela professora, direÃ§Ã£o, coordenaÃ§Ã£o&lt;/font&gt;&lt;br&gt;&lt;/font&gt;" style="rounded=1;whiteSpace=wrap;html=1;fillColor=#dae8fc;strokeColor=#6c8ebf;" vertex="1" parent="1">
          <mxGeometry x="360" y="700" width="120" height="60" as="geometry" />
        </mxCell>
        <mxCell id="8PaIV5h2lotwXUUkNXA3-120" value="&lt;font style=&quot;&quot;&gt;&lt;font style=&quot;font-size: 13px;&quot;&gt;Preenchido pela professora e autorizado pela direÃ§Ã£o&lt;/font&gt;&lt;br&gt;&lt;/font&gt;" style="rounded=1;whiteSpace=wrap;html=1;fillColor=#dae8fc;strokeColor=#6c8ebf;" vertex="1" parent="1">
          <mxGeometry x="490" y="700" width="120" height="60" as="geometry" />
        </mxCell>
        <mxCell id="8PaIV5h2lotwXUUkNXA3-132" value="" style="endArrow=none;html=1;rounded=0;" edge="1" parent="1">
          <mxGeometry width="50" height="50" relative="1" as="geometry">
            <mxPoint x="-120" y="30" as="sourcePoint" />
            <mxPoint x="384.13" y="30" as="targetPoint" />
            <Array as="points">
              <mxPoint x="134.13" y="30" />
            </Array>
          </mxGeometry>
        </mxCell>
        <mxCell id="8PaIV5h2lotwXUUkNXA3-133" value="" style="endArrow=none;html=1;rounded=0;" edge="1" parent="1">
          <mxGeometry width="50" height="50" relative="1" as="geometry">
            <mxPoint x="-120" y="290" as="sourcePoint" />
            <mxPoint x="-120" y="30" as="targetPoint" />
          </mxGeometry>
        </mxCell>
        <mxCell id="8PaIV5h2lotwXUUkNXA3-134" value="" style="endArrow=none;html=1;rounded=0;" edge="1" parent="1">
          <mxGeometry width="50" height="50" relative="1" as="geometry">
            <mxPoint x="460" y="30" as="sourcePoint" />
            <mxPoint x="960" y="30" as="targetPoint" />
            <Array as="points" />
          </mxGeometry>
        </mxCell>
        <mxCell id="8PaIV5h2lotwXUUkNXA3-135" value="" style="endArrow=none;html=1;rounded=0;" edge="1" parent="1">
          <mxGeometry width="50" height="50" relative="1" as="geometry">
            <mxPoint x="960" y="140" as="sourcePoint" />
            <mxPoint x="960" y="30" as="targetPoint" />
          </mxGeometry>
        </mxCell>
        <mxCell id="8PaIV5h2lotwXUUkNXA3-163" style="edgeStyle=orthogonalEdgeStyle;rounded=0;orthogonalLoop=1;jettySize=auto;html=1;entryX=0.5;entryY=1;entryDx=0;entryDy=0;" edge="1" parent="1" source="lfwVHoiBFtauXAvSEoH1-7" target="lfwVHoiBFtauXAvSEoH1-14">
          <mxGeometry relative="1" as="geometry" />
        </mxCell>
        <mxCell id="8PaIV5h2lotwXUUkNXA3-164" style="edgeStyle=orthogonalEdgeStyle;rounded=0;orthogonalLoop=1;jettySize=auto;html=1;entryX=0.5;entryY=0;entryDx=0;entryDy=0;" edge="1" parent="1" target="8PaIV5h2lotwXUUkNXA3-26">
          <mxGeometry relative="1" as="geometry">
            <mxPoint x="420" y="120" as="sourcePoint" />
          </mxGeometry>
        </mxCell>
        <mxCell id="8PaIV5h2lotwXUUkNXA3-168" style="edgeStyle=orthogonalEdgeStyle;rounded=0;orthogonalLoop=1;jettySize=auto;html=1;entryX=0.5;entryY=1;entryDx=0;entryDy=0;" edge="1" parent="1" target="8PaIV5h2lotwXUUkNXA3-165">
          <mxGeometry relative="1" as="geometry">
            <mxPoint x="460" y="30" as="sourcePoint" />
            <Array as="points">
              <mxPoint x="560" y="30" />
            </Array>
          </mxGeometry>
        </mxCell>
        <mxCell id="8PaIV5h2lotwXUUkNXA3-169" style="edgeStyle=orthogonalEdgeStyle;rounded=0;orthogonalLoop=1;jettySize=auto;html=1;entryX=0.5;entryY=1;entryDx=0;entryDy=0;" edge="1" parent="1" target="8PaIV5h2lotwXUUkNXA3-167">
          <mxGeometry relative="1" as="geometry">
            <mxPoint x="380" y="30" as="sourcePoint" />
            <Array as="points">
              <mxPoint x="280" y="30" />
            </Array>
          </mxGeometry>
        </mxCell>
        <mxCell id="8PaIV5h2lotwXUUkNXA3-172" style="edgeStyle=orthogonalEdgeStyle;rounded=0;orthogonalLoop=1;jettySize=auto;html=1;exitX=0.75;exitY=0.1;exitDx=0;exitDy=0;exitPerimeter=0;" edge="1" parent="1" source="lfwVHoiBFtauXAvSEoH1-7" target="8PaIV5h2lotwXUUkNXA3-166">
          <mxGeometry relative="1" as="geometry">
            <mxPoint x="460" y="10" as="sourcePoint" />
            <Array as="points">
              <mxPoint x="433" y="10" />
              <mxPoint x="520" y="10" />
              <mxPoint x="520" y="-120" />
              <mxPoint x="420" y="-120" />
            </Array>
          </mxGeometry>
        </mxCell>
        <mxCell id="lfwVHoiBFtauXAvSEoH1-7" value="DireÃ§Ã£o" style="shape=umlActor;verticalLabelPosition=bottom;verticalAlign=top;html=1;outlineConnect=0;" parent="1" vertex="1">
          <mxGeometry x="394.5" width="51" height="90" as="geometry" />
        </mxCell>
        <mxCell id="8PaIV5h2lotwXUUkNXA3-165" value="&lt;font style=&quot;font-size: 14px;&quot;&gt;Financeiro incluir: Dados para cadastro de boleto&lt;/font&gt;" style="rounded=1;whiteSpace=wrap;html=1;fillColor=#dae8fc;strokeColor=#6c8ebf;" vertex="1" parent="1">
          <mxGeometry x="500" y="-210" width="120" height="60" as="geometry" />
        </mxCell>
        <mxCell id="8PaIV5h2lotwXUUkNXA3-166" value="&lt;font style=&quot;font-size: 16px;&quot;&gt;Almoxarifado&lt;/font&gt;" style="rounded=1;whiteSpace=wrap;html=1;fillColor=#dae8fc;strokeColor=#6c8ebf;" vertex="1" parent="1">
          <mxGeometry x="360" y="-210" width="120" height="60" as="geometry" />
        </mxCell>
        <mxCell id="8PaIV5h2lotwXUUkNXA3-167" value="&lt;font style=&quot;font-size: 15px;&quot;&gt;Controle de compras e saÃ­da de materiais&lt;/font&gt;" style="rounded=1;whiteSpace=wrap;html=1;fillColor=#dae8fc;strokeColor=#6c8ebf;" vertex="1" parent="1">
          <mxGeometry x="220" y="-210" width="120" height="60" as="geometry" />
        </mxCell>
      </root>
    </mxGraphModel>
  </diagram>
</mxfile>
